<svg width="420" height="40" viewBox="0 0 420 40" fill="none" xmlns="http://www.w3.org/2000/svg">
<g clip-path="url(#clip0_111_60)">
<path d="M37.7804 3.35166H27.9334L19.5038 14.405L10.3699 3.35166H0.237706L14.0009 19.5038L0 36.4909H9.79944L18.7699 25.2058L28.1206 36.4909H38.2529L24.2104 20.0327L37.7804 3.35166Z" fill="#87CEEB"/>
<path d="M44.2668 10.4531H56.4819V36.4909H64.5283V10.4531H77.0287V3.35166H44.2668V10.4531Z" fill="#87CEEB"/>
<path d="M110.931 24.0351C111.273 23.8954 111.615 23.7617 111.942 23.5894C113.728 22.6843 115.242 21.3204 116.327 19.6375C117.409 17.9249 117.966 15.9339 117.932 13.9088C117.979 11.9573 117.463 10.0337 116.446 8.36726C115.422 6.76203 113.962 5.48192 112.236 4.67687C110.417 3.78547 108.263 3.34869 105.77 3.34869H87.7314V36.4909H95.3974V25.0334H102.398L110.406 36.4909H119.744L110.931 24.0351ZM109.175 16.7048C108.737 17.3961 108.114 17.9516 107.378 18.3093C106.614 18.692 105.771 18.8885 104.918 18.8828H95.4093V10.0728H104.641C105.552 10.0593 106.456 10.2364 107.295 10.5928C108.043 10.9066 108.691 11.4207 109.167 12.0784C109.63 12.7543 109.868 13.5591 109.847 14.3783C109.853 15.2024 109.62 16.0106 109.175 16.7048Z" fill="#87CEEB"/>
<path d="M149.889 3.34869H142.502L126.977 36.4909H135.071L137.87 30.4799H154.212L157.026 36.4909H165.325L149.889 3.34869ZM140.698 24.4184L143.833 17.6943C144.148 17.0049 144.448 16.3304 144.724 15.6797C145.001 15.029 145.286 14.399 145.553 13.7691C145.747 13.3145 145.913 12.8391 146.079 12.3726C146.234 12.8064 146.376 13.2402 146.549 13.6681C146.781 14.304 147.048 14.9527 147.351 15.6143C147.648 16.2769 147.945 16.9574 148.225 17.6467L151.395 24.4184H140.698Z" fill="#87CEEB"/>
<path d="M180.689 10.3818C182.051 9.21638 183.615 8.31006 185.304 7.70762C187.097 7.06532 188.989 6.74445 190.893 6.75977C192.469 6.75594 194.038 6.97094 195.555 7.3986C197.002 7.80418 198.387 8.4039 199.673 9.1814C200.877 9.90505 201.983 10.7809 202.962 11.7873L205.283 8.66142C204.21 7.55478 202.972 6.62066 201.613 5.89214C200.05 5.0233 198.389 4.34211 196.666 3.86272C194.879 3.3591 193.032 3.10414 191.175 3.10504C188.683 3.08302 186.207 3.4994 183.86 4.33517C181.676 5.11267 179.666 6.31095 177.944 7.86213C176.281 9.35673 174.943 11.1772 174.013 13.2105C173.071 15.2997 172.594 17.5687 172.616 19.8603C172.591 22.2299 173.067 24.5781 174.013 26.7509C174.924 28.8227 176.264 30.678 177.944 32.1943C179.678 33.7541 181.705 34.953 183.907 35.7213C186.303 36.5619 188.827 36.9791 191.365 36.9544C193.191 36.9581 195.007 36.703 196.761 36.1967C198.413 35.7256 200.007 35.0739 201.515 34.2535C202.761 33.6075 203.903 32.7781 204.903 31.7932L203.15 28.6674C202.22 29.5165 201.213 30.2775 200.143 30.9404C198.93 31.7007 197.617 32.2878 196.241 32.6846C194.717 33.1224 193.138 33.3385 191.553 33.3264C189.558 33.3425 187.574 33.0251 185.684 32.3875C183.915 31.792 182.269 30.8776 180.829 29.6895C179.441 28.541 178.333 27.0922 177.587 25.4524C176.811 23.7013 176.423 21.8025 176.452 19.8871C176.432 18.0517 176.811 16.2338 177.564 14.5595C178.286 12.9543 179.353 11.5279 180.689 10.3818Z" fill="#979797"/>
<path d="M244.484 18.3123H221.239V3.35166H217.546V36.4909H221.239V21.9106H244.484V36.4909H248.177V3.35166H244.484V18.3123Z" fill="#979797"/>
<path d="M331.303 23.1763C332.095 22.9646 332.862 22.6657 333.588 22.285C335.209 21.4502 336.581 20.2029 337.566 18.6688C338.567 17.0744 339.083 15.2235 339.052 13.3413C339.078 11.5547 338.582 9.79938 337.626 8.29C336.659 6.74664 335.31 5.47947 333.709 4.61157C332.108 3.74367 330.31 3.30453 328.489 3.3368H311.731V36.4909H315.421V23.6161H327.098L336.256 36.4909H340.802L331.303 23.1763ZM315.406 20.0267V6.95291H327.624C328.935 6.93557 330.232 7.22667 331.41 7.8027C332.497 8.32832 333.428 9.12816 334.111 10.1233C334.772 11.1019 335.119 12.2585 335.106 13.4393C335.121 14.6196 334.791 15.7785 334.155 16.7731C333.512 17.7896 332.604 18.6114 331.529 19.1502C330.367 19.7517 329.075 20.0578 327.767 20.0416L315.406 20.0267Z" fill="#979797"/>
<path d="M353.754 36.4909H378.514V32.8926H357.448V21.248H375.959V17.6497H357.448V6.94993H378.609V3.35166H353.754V36.4909Z" fill="#979797"/>
<path d="M418.143 22.9268C417.375 21.8641 416.354 21.0102 415.172 20.4427C413.816 19.7796 412.385 19.2808 410.911 18.9571C409.326 18.5946 407.732 18.2707 406.13 17.9854C404.549 17.7656 403.132 17.513 401.869 17.2278C400.727 16.9829 399.609 16.6348 398.529 16.1878C397.662 15.8509 396.903 15.2863 396.33 14.5536C395.805 13.8156 395.538 12.9244 395.573 12.019C395.567 11.4721 395.673 10.9297 395.884 10.4253C396.096 9.92096 396.408 9.46526 396.803 9.08632C397.739 8.19072 398.869 7.52185 400.104 7.13118C401.632 6.63656 403.231 6.39665 404.837 6.42104C406.258 6.41161 407.672 6.61902 409.03 7.0361C410.317 7.43799 411.538 8.02879 412.652 8.78918C413.775 9.56835 414.776 10.5096 415.623 11.5822L418.086 8.88427C417.186 7.63516 416.073 6.55483 414.797 5.69306C413.445 4.79963 411.958 4.12853 410.394 3.70524C408.602 3.22855 406.754 2.99764 404.9 3.01887C403.146 3.0058 401.397 3.21243 399.694 3.63393C398.184 4.00043 396.75 4.62573 395.454 5.4821C394.298 6.24116 393.333 7.2583 392.637 8.45342C391.958 9.65462 391.607 11.0136 391.621 12.3934C391.581 13.7226 391.917 15.0361 392.592 16.1818C393.271 17.2544 394.207 18.1408 395.314 18.761C396.603 19.4908 397.979 20.0559 399.409 20.4427C401.097 20.9122 402.813 21.2754 404.546 21.5302C405.366 21.6877 406.252 21.8482 407.197 22.0056C408.141 22.1631 409.107 22.3592 410.085 22.5999C410.998 22.8109 411.88 23.1364 412.711 23.5686C413.429 23.9329 414.066 24.4382 414.583 25.0542C415.071 25.6823 415.322 26.4615 415.293 27.256C415.314 27.8812 415.203 28.5039 414.966 29.083C414.73 29.6622 414.373 30.1848 413.921 30.6166C412.866 31.6267 411.582 32.3668 410.18 32.7737C408.507 33.2792 406.766 33.5257 405.019 33.5047C402.689 33.5265 400.381 33.0504 398.25 32.1082C396.166 31.1791 394.209 29.6727 392.379 27.5888L390.001 30.6166C391.19 32.0014 392.588 33.1924 394.144 34.1465C395.698 35.0857 397.38 35.7943 399.138 36.2502C401.025 36.7364 402.966 36.9761 404.915 36.9633C407.821 36.9633 410.346 36.5443 412.491 35.7064C414.637 34.8685 416.294 33.68 417.462 32.1408C418.624 30.6291 419.24 28.7697 419.213 26.8638C419.224 25.2652 418.868 23.9529 418.143 22.9268Z" fill="#979797"/>
<path d="M293.312 19.9941C293.309 17.5259 292.62 15.1071 291.321 13.0085C291.386 13.1184 291.466 13.2165 291.535 13.3323C291.895 13.9429 292.439 14.4241 293.089 14.7074C293.739 14.9907 294.461 15.0617 295.154 14.9101C295.961 17.3139 296.186 19.8753 295.807 22.3828C295.429 24.8903 294.46 27.2718 292.979 29.3304C291.499 31.3891 289.549 33.0658 287.292 34.222C285.035 35.3783 282.536 35.9808 280 35.9798C279.823 35.9798 279.653 36.0502 279.527 36.1756C279.402 36.301 279.331 36.471 279.331 36.6483C279.331 36.8257 279.402 36.9957 279.527 37.1211C279.653 37.2465 279.823 37.3169 280 37.3169C282.759 37.3168 285.478 36.6578 287.931 35.3947C290.384 34.1317 292.5 32.301 294.103 30.0551C295.705 27.8092 296.749 25.2131 297.145 22.4827C297.542 19.7523 297.281 16.9666 296.384 14.3575C297.003 13.9028 297.448 13.2496 297.644 12.5067C297.841 11.7638 297.777 10.9761 297.462 10.2748C299.156 13.3176 300.025 16.75 299.984 20.2321C299.943 23.7142 298.994 27.1252 297.229 30.1273C295.464 33.1295 292.946 35.6185 289.924 37.3481C286.901 39.0777 283.479 39.9877 279.997 39.9881C279.173 39.9822 278.381 39.6744 277.769 39.1229C277.157 38.5714 276.769 37.8146 276.678 36.996C276.662 36.8849 276.656 36.7725 276.66 36.6602C276.657 36.3249 276.706 35.991 276.806 35.6708C277.019 34.9925 277.442 34.3993 278.014 33.9765C278.586 33.5537 279.277 33.323 279.988 33.3175C283.521 33.3143 286.908 31.9096 289.406 29.4117C291.904 26.9137 293.308 23.5267 293.312 19.9941Z" fill="url(#paint0_linear_111_60)"/>
<path d="M273.335 8.46531C271.199 9.69994 269.45 11.5058 268.284 13.68C268.346 13.5701 268.394 13.4512 268.459 13.3353C268.809 12.7166 268.954 12.0035 268.873 11.2976C268.793 10.5916 268.493 9.92903 268.014 9.40425C269.153 8.10454 270.498 7.00042 271.995 6.13579C275.67 4.02209 280.032 3.45099 284.127 4.54761C288.221 5.64423 291.714 8.31915 293.84 11.9863C293.934 12.1299 294.079 12.2321 294.245 12.272C294.412 12.3118 294.587 12.2863 294.736 12.2005C294.884 12.1148 294.994 11.9754 295.042 11.8111C295.091 11.6469 295.074 11.4703 294.996 11.3178C293.617 8.92778 291.687 6.90192 289.366 5.40898C287.046 3.91605 284.402 2.99926 281.656 2.735C278.909 2.47075 276.139 2.86667 273.576 3.88979C271.014 4.91291 268.733 6.53361 266.923 8.61685C266.22 8.30761 265.432 8.24895 264.69 8.45065C263.949 8.65235 263.299 9.10221 262.849 9.72515C264.636 6.73488 267.173 4.26352 270.21 2.5561C273.246 0.848683 276.676 -0.0354943 280.159 -0.0087691C283.642 0.017956 287.058 0.954655 290.068 2.70846C293.077 4.46227 295.576 6.97226 297.317 9.9896C297.724 10.706 297.853 11.5467 297.681 12.3524C297.509 13.158 297.048 13.8725 296.384 14.3604C296.291 14.431 296.191 14.4926 296.087 14.5446C295.798 14.7128 295.485 14.836 295.16 14.9101C294.466 15.0647 293.741 14.9952 293.089 14.7117C292.437 14.4282 291.892 13.9452 291.532 13.3323C289.761 10.2772 286.851 8.04911 283.44 7.1367C280.029 6.22429 276.395 6.7021 273.335 8.46531Z" fill="url(#paint1_linear_111_60)"/>
<path d="M273.335 31.5287C275.473 32.7677 277.914 33.3851 280.383 33.3115C280.256 33.3115 280.128 33.3323 279.994 33.3323C279.285 33.3396 278.596 33.5704 278.026 33.9918C277.456 34.4133 277.033 35.004 276.818 35.6797C274.332 35.176 272.002 34.0883 270.02 32.5064C268.038 30.9244 266.461 28.8937 265.419 26.5818C264.377 24.27 263.9 21.7434 264.027 19.2107C264.154 16.678 264.882 14.2119 266.151 12.016C266.228 11.8635 266.245 11.6869 266.196 11.5227C266.148 11.3584 266.038 11.2191 265.89 11.1333C265.742 11.0476 265.566 11.022 265.4 11.0618C265.233 11.1017 265.088 11.2039 264.995 11.3475C263.615 13.7368 262.826 16.4211 262.693 19.1769C262.56 21.9328 263.088 24.6805 264.231 27.1914C265.375 29.7023 267.101 31.9039 269.267 33.6129C271.433 35.3219 273.976 36.4889 276.684 37.0168C276.768 37.7798 277.112 38.4909 277.657 39.0316C278.202 39.5723 278.915 39.9099 279.679 39.9881C276.194 39.9383 272.783 38.978 269.784 37.2024C266.785 35.4269 264.302 32.898 262.582 29.8666C260.862 26.8352 259.965 23.4067 259.98 19.9215C259.994 16.4363 260.92 13.0154 262.665 9.99852C263.081 9.28467 263.746 8.74915 264.532 8.49428C265.318 8.23941 266.17 8.28304 266.926 8.61685C267.03 8.65794 267.13 8.70972 267.223 8.77136C267.518 8.93724 267.785 9.14885 268.014 9.39831C268.495 9.92196 268.797 10.5848 268.877 11.2912C268.957 11.9977 268.811 12.7113 268.459 13.3294C266.696 16.3901 266.219 20.0255 267.133 23.4376C268.047 26.8496 270.278 29.7596 273.335 31.5287Z" fill="url(#paint2_linear_111_60)"/>
</g>
<defs>
<linearGradient id="paint0_linear_111_60" x1="288.326" y1="12.7411" x2="288.326" y2="40.2169" gradientUnits="userSpaceOnUse">
<stop stop-color="white" stop-opacity="0"/>
<stop offset="0.13" stop-color="#FBFBFB" stop-opacity="0.04"/>
<stop offset="0.3" stop-color="#EFEFEF" stop-opacity="0.15"/>
<stop offset="0.5" stop-color="#DCDCDC" stop-opacity="0.34"/>
<stop offset="0.72" stop-color="#C1C1C1" stop-opacity="0.6"/>
<stop offset="0.95" stop-color="#9F9F9F" stop-opacity="0.93"/>
<stop offset="1" stop-color="#979797"/>
</linearGradient>
<linearGradient id="paint1_linear_111_60" x1="269.546" y1="16.4093" x2="293.341" y2="2.67135" gradientUnits="userSpaceOnUse">
<stop stop-color="white" stop-opacity="0"/>
<stop offset="0.13" stop-color="#FBFBFB" stop-opacity="0.04"/>
<stop offset="0.3" stop-color="#EFEFEF" stop-opacity="0.15"/>
<stop offset="0.5" stop-color="#DCDCDC" stop-opacity="0.34"/>
<stop offset="0.72" stop-color="#C1C1C1" stop-opacity="0.6"/>
<stop offset="0.95" stop-color="#9F9F9F" stop-opacity="0.93"/>
<stop offset="1" stop-color="#979797"/>
</linearGradient>
<linearGradient id="paint2_linear_111_60" x1="282.11" y1="30.8383" x2="258.318" y2="17.1019" gradientUnits="userSpaceOnUse">
<stop stop-color="white" stop-opacity="0"/>
<stop offset="0.13" stop-color="#FBFBFB" stop-opacity="0.04"/>
<stop offset="0.3" stop-color="#EFEFEF" stop-opacity="0.15"/>
<stop offset="0.5" stop-color="#DCDCDC" stop-opacity="0.34"/>
<stop offset="0.72" stop-color="#C1C1C1" stop-opacity="0.6"/>
<stop offset="0.95" stop-color="#9F9F9F" stop-opacity="0.93"/>
<stop offset="1" stop-color="#979797"/>
</linearGradient>
<clipPath id="clip0_111_60">
<rect width="419.23" height="40" fill="white"/>
</clipPath>
</defs>
</svg>
