<svg width="21" height="21" viewBox="0 0 21 21" fill="none" xmlns="http://www.w3.org/2000/svg">
<path d="M6.07669 6.27164C5.12035 7.26407 4.53482 8.55548 4.41854 9.92879C4.30225 11.3021 4.6623 12.6736 5.43816 13.8127C6.21401 14.9518 7.35838 15.789 8.67887 16.1837C9.99937 16.5784 11.4155 16.5065 12.6892 15.98C12.7402 15.5411 12.6783 15.0965 12.5092 14.6883C12.0544 13.8976 11.4849 13.1787 10.8192 12.555C10.5692 12.2891 10.5825 12.0841 10.6734 11.4775L10.6834 11.4091C10.745 10.9925 10.85 10.7475 12.2475 10.5258C12.4761 10.46 12.7209 10.4813 12.9346 10.5857C13.1483 10.6901 13.3156 10.8701 13.4042 11.0908L13.4875 11.22C13.6514 11.4828 13.8992 11.6825 14.1909 11.7866C14.3142 11.8433 14.4684 11.9141 14.6742 12.03C15.1634 12.31 15.1634 12.6258 15.1634 13.3166V13.395C15.1646 13.6554 15.1401 13.9153 15.09 14.1708C15.6659 13.4488 16.0674 12.6036 16.2632 11.701C16.4589 10.7984 16.4436 9.86281 16.2186 8.96709C15.9935 8.07137 15.5647 7.23969 14.9655 6.53685C14.3663 5.83401 13.613 5.27898 12.7642 4.91498C12.3309 5.17926 11.9335 5.49827 11.5817 5.86414C11.48 6.00331 11.3367 6.71331 10.8692 6.77164C10.7159 6.78227 10.5621 6.78004 10.4092 6.76498C9.94253 6.73498 9.30503 6.69414 9.10086 7.24831C9.01413 7.54998 8.99305 7.86672 9.03905 8.17722C9.08505 8.48772 9.19706 8.78475 9.36753 9.04831C9.40299 9.1061 9.42453 9.17133 9.43046 9.23887C9.43639 9.30641 9.42654 9.3744 9.40169 9.43748C9.36633 9.58052 9.29019 9.71021 9.18253 9.81081C9.06689 9.71451 8.9616 9.60643 8.86836 9.48831C8.64153 9.16512 8.3265 8.91402 7.96086 8.76498C7.82253 8.72664 7.67169 8.69498 7.52336 8.66331C7.11169 8.57998 6.64586 8.47914 6.53753 8.24664C6.46746 8.03813 6.44053 7.81755 6.45836 7.59831C6.48057 7.2548 6.42827 6.91055 6.30503 6.58914C6.25194 6.46685 6.17389 6.357 6.07586 6.26664L6.07669 6.27164ZM10.4 17.9316C8.91667 17.9316 7.46662 17.4918 6.23325 16.6677C4.99988 15.8436 4.03859 14.6722 3.47093 13.3018C2.90327 11.9313 2.75475 10.4233 3.04414 8.96847C3.33353 7.51361 4.04783 6.17724 5.09673 5.12834C6.14562 4.07945 7.48199 3.36514 8.93685 3.07575C10.3917 2.78637 11.8997 2.93489 13.2702 3.50255C14.6406 4.0702 15.8119 5.0315 16.636 6.26487C17.4602 7.49824 17.9 8.94828 17.9 10.4316C17.9 12.4208 17.1098 14.3284 15.7033 15.7349C14.2968 17.1415 12.3892 17.9316 10.4 17.9316Z" fill="#3F3F3F"/>
</svg>
