<svg width="25" height="24" viewBox="0 0 25 24" fill="none" xmlns="http://www.w3.org/2000/svg">
<path d="M15.814 12.881C16.22 13.021 16.619 13.142 17.008 13.294C18.1335 13.728 19.171 14.3627 20.07 15.167C20.4577 15.4937 20.7739 15.8968 20.9988 16.3513C21.2237 16.8057 21.3524 17.3016 21.377 17.808C21.424 18.863 21.387 19.919 21.387 20.99H4.41598C4.41598 20.946 4.40398 20.901 4.40298 20.856C4.40598 19.948 4.39698 19.037 4.40598 18.13C4.40127 17.5463 4.52725 16.969 4.7747 16.4404C5.02214 15.9118 5.38476 15.4452 5.83598 15.075C6.98377 14.0856 8.336 13.362 9.79598 12.956C9.85798 12.938 9.91898 12.919 9.99598 12.892C9.3284 12.4064 8.79481 11.7595 8.44505 11.0117C8.0953 10.2639 7.9408 9.43968 7.99598 8.616C8.02608 7.9737 8.18656 7.34423 8.46764 6.76591C8.74872 6.18759 9.14453 5.67251 9.63098 5.252C10.5707 4.40746 11.8006 3.95906 13.0633 4.00063C14.3261 4.04219 15.5238 4.5705 16.406 5.475C16.9082 5.97053 17.2938 6.57174 17.5346 7.23494C17.7753 7.89814 17.8653 8.60666 17.798 9.309C17.7459 10.0126 17.5415 10.6965 17.1989 11.3132C16.8563 11.93 16.3838 12.4649 15.814 12.881ZM20.072 19.664C20.072 19.13 20.079 18.612 20.072 18.094C20.0719 17.7207 19.9904 17.3519 19.833 17.0134C19.6757 16.6748 19.4463 16.3747 19.161 16.134C18.3306 15.4039 17.3712 14.8355 16.332 14.458C14.6751 13.857 12.8893 13.7028 11.154 14.011C9.49015 14.2804 7.93488 15.0099 6.66398 16.117C6.19357 16.4945 5.88114 17.0341 5.78798 17.63C5.74358 18.0813 5.72288 18.5346 5.72598 18.988C5.71898 19.212 5.72598 19.433 5.72598 19.664H20.072ZM9.31798 8.918C9.31857 9.62682 9.52922 10.3196 9.9233 10.9087C10.3174 11.4979 10.8772 11.9571 11.5321 12.2282C12.187 12.4994 12.9076 12.5704 13.6028 12.4322C14.2981 12.2941 14.9368 11.953 15.4382 11.4521C15.9397 10.9512 16.2815 10.3128 16.4204 9.61777C16.5594 8.9227 16.4892 8.20205 16.2187 7.54685C15.9483 6.89165 15.4898 6.33128 14.901 5.93654C14.3123 5.5418 13.6198 5.33038 12.911 5.329C11.9593 5.33084 11.0471 5.70944 10.3738 6.38199C9.70049 7.05454 9.32088 7.96634 9.31798 8.918Z" fill="#212529"/>
</svg>
