<svg width="21" height="21" viewBox="0 0 21 21" fill="none" xmlns="http://www.w3.org/2000/svg">
<path d="M3.75 3.96484H17.25C17.4489 3.96484 17.6397 4.04386 17.7803 4.18451C17.921 4.32517 18 4.51593 18 4.71484V16.7148C18 16.9138 17.921 17.1045 17.7803 17.2452C17.6397 17.3858 17.4489 17.4648 17.25 17.4648H3.75C3.55109 17.4648 3.36032 17.3858 3.21967 17.2452C3.07902 17.1045 3 16.9138 3 16.7148V4.71484C3 4.51593 3.07902 4.32517 3.21967 4.18451C3.36032 4.04386 3.55109 3.96484 3.75 3.96484ZM10.545 10.4773L5.73583 6.39401L4.765 7.53651L10.555 12.4532L16.2408 7.53651L15.2592 6.39818L10.545 10.4815V10.4773Z" fill="#3F3F3F"/>
</svg>
