<svg width="21" height="21" viewBox="0 0 21 21" fill="none" xmlns="http://www.w3.org/2000/svg">
<path d="M10.5013 2.09863C15.1037 2.09863 18.8347 5.82959 18.8347 10.432C18.8347 15.0343 15.1037 18.7653 10.5013 18.7653C8.97307 18.7653 7.54091 18.354 6.30954 17.6359L2.17145 18.7653L3.29809 14.6249C2.5796 13.3933 2.16797 11.9607 2.16797 10.432C2.16797 5.82959 5.89893 2.09863 10.5013 2.09863ZM7.49408 6.52224C7.38626 6.52982 7.28054 6.55615 7.18429 6.60539C7.11208 6.64233 7.04505 6.69572 6.93973 6.79518C6.84027 6.88909 6.78263 6.97111 6.72189 7.05018C6.41381 7.4513 6.24823 7.94367 6.2513 8.44945C6.25298 8.8583 6.35918 9.25563 6.52689 9.62663C6.867 10.379 7.42788 11.1743 8.16877 11.9119C8.34673 12.089 8.52109 12.2681 8.7091 12.4336C9.62865 13.2433 10.7245 13.8271 11.9094 14.1388C11.9094 14.1388 12.3761 14.2105 12.3829 14.2109C12.5375 14.2192 12.6918 14.208 12.8466 14.2001C13.0893 14.1876 13.3263 14.122 13.5408 14.0077C13.6787 13.9343 13.744 13.8978 13.8597 13.8248C13.8597 13.8248 13.8952 13.8008 13.9637 13.7498C14.0762 13.666 14.1457 13.607 14.2393 13.5098C14.3083 13.4381 14.3677 13.3535 14.4135 13.258C14.4787 13.122 14.5442 12.8625 14.5703 12.6469C14.5902 12.4822 14.5842 12.3922 14.5821 12.3365C14.5785 12.2468 14.5044 12.1545 14.4232 12.1154L13.9387 11.8975C13.9387 11.8975 13.2141 11.5822 12.7709 11.38C12.7247 11.359 12.6742 11.3492 12.6235 11.3461C12.5123 11.3393 12.3877 11.3683 12.3085 11.4518C12.3043 11.4501 12.2492 11.4978 11.6462 12.2282C11.613 12.268 11.5351 12.3544 11.4003 12.3463C11.38 12.3449 11.3597 12.342 11.34 12.3368C11.2854 12.3224 11.2322 12.3034 11.1802 12.2814C11.0772 12.2376 11.041 12.221 10.9706 12.1907C10.4895 11.9805 10.048 11.6994 9.65774 11.3553C9.55307 11.2631 9.45573 11.1639 9.3554 11.0666C9.00523 10.7272 8.71856 10.3662 8.50529 10.0101C8.49365 9.99072 8.47571 9.96263 8.45639 9.93122C8.42149 9.87447 8.38301 9.80697 8.37094 9.76063C8.33997 9.63805 8.42214 9.53955 8.42214 9.53955C8.42214 9.53955 8.62498 9.3178 8.71922 9.19722C8.80989 9.08113 8.88815 8.96763 8.93798 8.88672C9.03615 8.72891 9.06723 8.56582 9.01565 8.43999C8.78185 7.87001 8.54064 7.3031 8.29204 6.73942C8.24297 6.62817 8.09703 6.54735 7.96431 6.53202C7.91936 6.52683 7.87444 6.52162 7.82931 6.51865C7.71759 6.5132 7.60565 6.5144 7.49408 6.52224Z" fill="#3F3F3F"/>
</svg>
