<svg width="20" height="21" viewBox="0 0 20 21" fill="none" xmlns="http://www.w3.org/2000/svg">
<g opacity="0.5">
<path d="M12.835 17.9316V12.1266H14.7792L15.07 9.86997H12.835V8.42997C12.835 7.77664 13.0167 7.33081 13.9533 7.33081H15.1483V5.31247C14.5698 5.25109 13.9884 5.22133 13.4067 5.22331C11.6842 5.22331 10.505 6.27497 10.505 8.20664V9.86997H8.55667V12.1266H10.505V17.9316H3.33333C3.11232 17.9316 2.90036 17.8438 2.74408 17.6876C2.5878 17.5313 2.5 17.3193 2.5 17.0983V3.76497C2.5 3.54396 2.5878 3.332 2.74408 3.17572C2.90036 3.01944 3.11232 2.93164 3.33333 2.93164H16.6667C16.8877 2.93164 17.0996 3.01944 17.2559 3.17572C17.4122 3.332 17.5 3.54396 17.5 3.76497V17.0983C17.5 17.3193 17.4122 17.5313 17.2559 17.6876C17.0996 17.8438 16.8877 17.9316 16.6667 17.9316H12.835Z" fill="#1D1B20"/>
</g>
</svg>
