<svg width="20" height="21" viewBox="0 0 20 21" fill="none" xmlns="http://www.w3.org/2000/svg">
<g opacity="0.5">
<path d="M10.8565 2.09868C11.4646 2.09635 12.0727 2.10246 12.6807 2.11701L12.8423 2.12285C13.029 2.12951 13.2132 2.13785 13.4357 2.14785C14.3223 2.18951 14.9273 2.32952 15.4582 2.53535C16.0082 2.74702 16.4715 3.03368 16.9348 3.49701C17.3585 3.91335 17.6863 4.41697 17.8957 4.97285C18.1015 5.50368 18.2415 6.10951 18.2832 6.99618C18.2932 7.21785 18.3015 7.40285 18.3082 7.58952L18.3132 7.75118C18.328 8.35884 18.3344 8.96668 18.3323 9.57452L18.3332 10.1962V11.2878C18.3352 11.896 18.3288 12.5041 18.314 13.112L18.309 13.2737C18.3023 13.4603 18.294 13.6445 18.284 13.867C18.2423 14.7537 18.1007 15.3587 17.8957 15.8895C17.687 16.446 17.3591 16.95 16.9348 17.3662C16.5181 17.7898 16.0143 18.1176 15.4582 18.327C14.9273 18.5329 14.3223 18.6728 13.4357 18.7145C13.2132 18.7245 13.029 18.7328 12.8423 18.7395L12.6807 18.7445C12.0727 18.7593 11.4646 18.7657 10.8565 18.7637L10.2348 18.7645H9.144C8.53588 18.7666 7.92777 18.7602 7.31983 18.7453L7.15816 18.7404C6.96034 18.7332 6.76256 18.7248 6.56483 18.7153C5.67816 18.6737 5.07316 18.532 4.5415 18.327C3.9854 18.1181 3.48169 17.7902 3.06566 17.3662C2.64153 16.9498 2.31335 16.4458 2.104 15.8895C1.89816 15.3587 1.75816 14.7537 1.7165 13.867C1.70722 13.6693 1.69888 13.4715 1.6915 13.2737L1.68733 13.112C1.67197 12.5041 1.66502 11.896 1.6665 11.2878V9.57452C1.66417 8.96668 1.67028 8.35885 1.68483 7.75118L1.69066 7.58952C1.69733 7.40285 1.70566 7.21785 1.71566 6.99618C1.75733 6.10868 1.89733 5.50452 2.10316 4.97285C2.31264 4.4167 2.64147 3.91322 3.0665 3.49785C3.48224 3.07348 3.98563 2.74499 4.5415 2.53535C5.07316 2.32952 5.67733 2.18951 6.56483 2.14785L7.15816 2.12285L7.31983 2.11868C7.92748 2.10333 8.53532 2.09638 9.14316 2.09785L10.8565 2.09868ZM9.99983 6.26535C9.44775 6.25754 8.89963 6.35954 8.38731 6.5654C7.87499 6.77127 7.4087 7.07691 7.01553 7.46456C6.62237 7.85221 6.31016 8.31413 6.09707 8.82348C5.88397 9.33284 5.77424 9.87947 5.77424 10.4316C5.77424 10.9837 5.88397 11.5304 6.09707 12.0397C6.31016 12.5491 6.62237 13.011 7.01553 13.3986C7.4087 13.7863 7.87499 14.0919 8.38731 14.2978C8.89963 14.5037 9.44775 14.6057 9.99983 14.5978C11.1049 14.5978 12.1647 14.1589 12.9461 13.3775C13.7275 12.5961 14.1665 11.5363 14.1665 10.4312C14.1665 9.32611 13.7275 8.2663 12.9461 7.4849C12.1647 6.7035 11.1049 6.26535 9.99983 6.26535ZM9.99983 7.93202C10.3319 7.9259 10.6619 7.98601 10.9705 8.10885C11.2791 8.2317 11.5601 8.4148 11.7971 8.64747C12.0342 8.88014 12.2225 9.15771 12.351 9.46397C12.4796 9.77022 12.5458 10.099 12.5459 10.4312C12.5459 10.7633 12.4798 11.0921 12.3514 11.3984C12.2229 11.7047 12.0347 11.9824 11.7977 12.2151C11.5608 12.4479 11.2798 12.6311 10.9713 12.754C10.6627 12.877 10.3328 12.9372 10.0007 12.9312C9.33762 12.9312 8.70174 12.6678 8.2329 12.1989C7.76405 11.7301 7.50066 11.0942 7.50066 10.4312C7.50066 9.76814 7.76405 9.13226 8.2329 8.66341C8.70174 8.19457 9.33762 7.93118 10.0007 7.93118L9.99983 7.93202ZM14.3748 5.01535C14.106 5.02611 13.8517 5.14047 13.6653 5.33449C13.4789 5.52851 13.3748 5.78713 13.3748 6.05618C13.3748 6.32524 13.4789 6.58386 13.6653 6.77787C13.8517 6.97189 14.106 7.08626 14.3748 7.09701C14.6511 7.09701 14.916 6.98727 15.1114 6.79192C15.3068 6.59657 15.4165 6.33162 15.4165 6.05535C15.4165 5.77908 15.3068 5.51413 15.1114 5.31878C14.916 5.12343 14.6511 5.01368 14.3748 5.01368V5.01535Z" fill="#1D1B20"/>
</g>
</svg>
