<svg width="20" height="21" viewBox="0 0 20 21" fill="none" xmlns="http://www.w3.org/2000/svg">
<g opacity="0.5">
<path d="M15.28 15.7141H13.0592V12.2333C13.0592 11.4033 13.0425 10.335 11.9008 10.335C10.7433 10.335 10.5667 11.2383 10.5667 12.1725V15.7141H8.345V8.55664H10.4783V9.53164H10.5075C10.8058 8.96997 11.5308 8.37581 12.6142 8.37581C14.8642 8.37581 15.2808 9.85747 15.2808 11.785L15.28 15.7141ZM5.83667 7.57747C5.66713 7.57769 5.49922 7.54445 5.34255 7.47965C5.18589 7.41484 5.04356 7.31976 4.92371 7.19984C4.80387 7.07992 4.70888 6.93752 4.64418 6.78082C4.57947 6.62411 4.54634 6.45618 4.54667 6.28664C4.54683 6.0315 4.62265 5.78214 4.76453 5.5701C4.90642 5.35805 5.108 5.19284 5.34377 5.09535C5.57955 4.99787 5.83895 4.97249 6.08915 5.02242C6.33935 5.07236 6.56913 5.19537 6.74942 5.3759C6.92972 5.55642 7.05243 5.78636 7.10204 6.03662C7.15166 6.28689 7.12594 6.54625 7.02815 6.78191C6.93036 7.01756 6.76489 7.21892 6.55266 7.36053C6.34043 7.50214 6.09097 7.57764 5.83583 7.57747H5.83667ZM6.95 15.7141H4.7225V8.55664H6.95V15.7141ZM16.3917 2.93164H3.60833C2.995 2.93164 2.5 3.41497 2.5 4.01247V16.8508C2.5 17.4483 2.995 17.9316 3.60667 17.9316H16.3892C17 17.9316 17.5 17.4483 17.5 16.8508V4.01247C17.5 3.41581 17 2.93164 16.3883 2.93164H16.3917Z" fill="#1D1B20"/>
</g>
</svg>
