<svg width="21" height="21" viewBox="0 0 21 21" fill="none" xmlns="http://www.w3.org/2000/svg">
<g clip-path="url(#clip0_111_1786)">
<path d="M15.8033 14.7017L10.5 20.005L5.19667 14.7017C4.14779 13.6528 3.43349 12.3164 3.14411 10.8616C2.85473 9.40673 3.00326 7.89873 3.57092 6.52829C4.13858 5.15785 5.09987 3.98652 6.33324 3.16241C7.5666 2.3383 9.01665 1.89844 10.5 1.89844C11.9834 1.89844 13.4334 2.3383 14.6668 3.16241C15.9001 3.98652 16.8614 5.15785 17.4291 6.52829C17.9968 7.89873 18.1453 9.40673 17.8559 10.8616C17.5665 12.3164 16.8522 13.6528 15.8033 14.7017ZM10.5 12.7317C11.1593 12.7317 11.8037 12.5362 12.3519 12.1699C12.9001 11.8037 13.3273 11.2831 13.5796 10.674C13.8319 10.0649 13.8979 9.39467 13.7693 8.74807C13.6407 8.10147 13.3232 7.50752 12.857 7.04135C12.3909 6.57517 11.7969 6.25771 11.1503 6.12909C10.5037 6.00047 9.83348 6.06648 9.22439 6.31877C8.6153 6.57107 8.09471 6.99831 7.72844 7.54647C7.36217 8.09464 7.16667 8.7391 7.16667 9.39837C7.16667 10.2824 7.51786 11.1303 8.14298 11.7554C8.7681 12.3805 9.61595 12.7317 10.5 12.7317ZM10.5 11.065C10.1704 11.065 9.84813 10.9673 9.57405 10.7842C9.29997 10.601 9.08635 10.3407 8.9602 10.0362C8.83406 9.73163 8.80105 9.39652 8.86536 9.07322C8.92967 8.74992 9.0884 8.45295 9.32149 8.21986C9.55458 7.98677 9.85155 7.82804 10.1749 7.76373C10.4982 7.69942 10.8333 7.73243 11.1378 7.85857C11.4424 7.98472 11.7027 8.19834 11.8858 8.47242C12.0689 8.7465 12.1667 9.06874 12.1667 9.39837C12.1667 9.8404 11.9911 10.2643 11.6785 10.5769C11.366 10.8894 10.942 11.065 10.5 11.065Z" fill="#3F3F3F"/>
</g>
<defs>
<clipPath id="clip0_111_1786">
<rect width="20" height="20" fill="white" transform="translate(0.5 0.231445)"/>
</clipPath>
</defs>
</svg>
