<svg width="20" height="21" viewBox="0 0 20 21" fill="none" xmlns="http://www.w3.org/2000/svg">
<g opacity="0.5">
<path d="M11.1434 2.1768C9.15015 1.90368 7.1254 2.36064 5.44268 3.46339C3.75997 4.56613 2.53285 6.24024 1.98773 8.17684C1.44261 10.1134 1.61628 12.1818 2.47669 14.0004C3.3371 15.819 4.82619 17.2651 6.66922 18.0718C6.61914 17.432 6.66464 16.7882 6.80422 16.1618C6.95839 15.4626 7.88422 11.6093 7.88422 11.6093C7.69983 11.1961 7.6077 10.7476 7.61422 10.2951C7.61422 9.05763 8.32839 8.1343 9.21672 8.1343C9.37631 8.13198 9.53453 8.16405 9.68061 8.22833C9.8267 8.29261 9.95724 8.38759 10.0633 8.50682C10.1694 8.62605 10.2486 8.76673 10.2955 8.91929C10.3424 9.07186 10.3559 9.23273 10.3351 9.39097C10.3351 10.141 9.85339 11.276 9.60172 12.341C9.55198 12.5363 9.54883 12.7406 9.59251 12.9373C9.63619 13.1341 9.72548 13.3178 9.85319 13.4737C9.98089 13.6297 10.1434 13.7534 10.3277 13.835C10.512 13.9166 10.7129 13.9537 10.9142 13.9435C12.4951 13.9435 13.5559 11.9176 13.5559 9.52597C13.5559 7.6918 12.3417 6.3193 10.1034 6.3193C9.56787 6.29849 9.0337 6.38674 8.53333 6.57868C8.03296 6.77062 7.57681 7.06226 7.1926 7.43587C6.80838 7.80949 6.5041 8.2573 6.29824 8.75211C6.09238 9.24692 5.98923 9.77841 5.99505 10.3143C5.97119 10.9087 6.16297 11.4918 6.53505 11.956C6.60458 12.0079 6.65535 12.081 6.6797 12.1642C6.70405 12.2475 6.70066 12.3365 6.67005 12.4176C6.63172 12.571 6.53505 12.9368 6.49672 13.0718C6.48864 13.1172 6.47001 13.1601 6.44234 13.197C6.41466 13.234 6.37871 13.2639 6.33738 13.2844C6.29605 13.3049 6.25048 13.3154 6.20434 13.3151C6.1582 13.3148 6.11278 13.3037 6.07172 13.2826C4.91839 12.821 4.37505 11.5518 4.37505 10.1026C4.37505 7.73013 6.36172 4.89013 10.3367 4.89013C13.5001 4.89013 15.6026 7.2043 15.6026 9.6793C15.6026 12.9368 13.7892 15.386 11.1084 15.386C10.7077 15.3988 10.3103 15.3103 9.95283 15.1289C9.59538 14.9474 9.28947 14.6787 9.06339 14.3476C9.06339 14.3476 8.58089 16.2776 8.48672 16.6426C8.29281 17.2732 8.00665 17.8716 7.63755 18.4185C8.40672 18.6518 9.20589 18.7685 10.0092 18.7651C11.1038 18.766 12.1878 18.551 13.1992 18.1324C14.2105 17.7137 15.1294 17.0997 15.9031 16.3255C16.6769 15.5513 17.2903 14.6321 17.7084 13.6205C18.1264 12.6088 18.3408 11.5247 18.3392 10.4301C18.3384 8.41749 17.6093 6.47312 16.2867 4.9561C14.964 3.43908 13.1371 2.45187 11.1434 2.1768Z" fill="#1D1B20"/>
</g>
</svg>
