<svg width="20" height="21" viewBox="0 0 20 21" fill="none" xmlns="http://www.w3.org/2000/svg">
<g opacity="0.5">
<path d="M18.5101 5.1454C17.8742 5.42673 17.1998 5.61155 16.5093 5.69373C17.2368 5.25802 17.7812 4.57268 18.0409 3.7654C17.3576 4.17207 16.6084 4.45707 15.8284 4.61123C15.3039 4.05005 14.6087 3.67787 13.8509 3.55256C13.0931 3.42724 12.3151 3.55581 11.6378 3.91828C10.9606 4.28075 10.4221 4.8568 10.106 5.55689C9.78997 6.25699 9.71406 7.04188 9.8901 7.78957C8.50422 7.72023 7.14841 7.36017 5.91072 6.73279C4.67303 6.1054 3.58114 5.22471 2.70594 4.1479C2.39618 4.67994 2.2334 5.28476 2.23427 5.9004C2.23427 7.10873 2.8501 8.17623 3.78427 8.80123C3.23095 8.78378 2.68981 8.63436 2.20594 8.3654V8.4079C2.20591 9.21279 2.4843 9.99292 2.99388 10.616C3.50346 11.239 4.21287 11.6666 5.00177 11.8262C4.48814 11.9656 3.94952 11.9861 3.42677 11.8862C3.64921 12.5791 4.08278 13.185 4.66677 13.6191C5.25076 14.0532 5.9559 14.2937 6.68344 14.3071C5.9604 14.8749 5.13251 15.2947 4.24711 15.5424C3.36171 15.79 2.43618 15.8607 1.52344 15.7504C3.11654 16.7749 4.97102 17.3188 6.8651 17.3171C13.2768 17.3171 16.7818 12.0062 16.7818 7.4004C16.7818 7.2504 16.7784 7.09873 16.7718 6.94957C17.4538 6.45653 18.0424 5.84504 18.5101 5.1454Z" fill="#1D1B20"/>
</g>
</svg>
